<?xml version="1.0" standalone="no"?>
<!DOCTYPE svg PUBLIC "-//W3C//DTD SVG 20010904//EN"
 "http://www.w3.org/TR/2001/REC-SVG-20010904/DTD/svg10.dtd">
<svg version="1.0" xmlns="http://www.w3.org/2000/svg"
 width="512.000000pt" height="512.000000pt" viewBox="0 0 512.000000 512.000000"
 preserveAspectRatio="xMidYMid meet">
<metadata>
Created by potrace 1.11, written by Peter Selinger 2001-2013
</metadata>
<g transform="translate(0.000000,512.000000) scale(0.100000,-0.100000)"
fill="#000000" stroke="none">
<path d="M2218 5078 c-12 -24 -21 -46 -20 -50 1 -5 -6 -9 -15 -9 -63 -6 -92
-11 -218 -44 -164 -42 -168 -43 -178 -44 -5 -1 -6 -5 -3 -9 2 -4 -3 -8 -12 -9
-43 -3 -62 -8 -62 -15 0 -4 -7 -8 -15 -8 -15 0 -75 -24 -143 -58 -19 -9 -42
-17 -53 -19 -25 -4 -102 -42 -110 -55 -3 -5 -9 -9 -13 -9 -3 1 -47 -26 -96
-59 -50 -33 -90 -57 -90 -55 0 3 -9 -4 -20 -15 -11 -11 -27 -20 -36 -20 -8 0
-13 -4 -9 -9 3 -5 -4 -12 -15 -16 -11 -3 -20 -11 -20 -16 0 -5 -6 -9 -13 -9
-7 0 -20 -8 -28 -17 -9 -10 -26 -25 -38 -33 -13 -8 -34 -25 -47 -37 -14 -13
-29 -23 -35 -23 -5 0 -8 -6 -6 -12 1 -7 -4 -12 -10 -11 -7 2 -13 -4 -13 -12 0
-8 -4 -15 -9 -15 -6 0 -48 -38 -95 -85 -47 -47 -83 -85 -80 -85 3 0 -6 -10
-18 -22 -13 -13 -45 -50 -71 -83 -63 -80 -59 -75 -87 -115 -13 -19 -28 -38
-33 -41 -5 -3 -8 -10 -7 -15 1 -5 -25 -20 -59 -34 -52 -21 -157 -90 -138 -90
3 0 -5 -12 -18 -26 -14 -15 -25 -33 -25 -40 0 -7 -4 -14 -10 -16 -5 -1 -11
-15 -12 -30 -1 -15 -6 -24 -10 -22 -4 3 -8 -1 -9 -8 0 -7 -2 -22 -5 -33 -18
-84 -24 -155 -12 -155 5 0 6 -6 2 -12 -10 -16 -13 -48 -4 -53 4 -2 5 -28 4
-57 -4 -70 -5 -81 -14 -93 -9 -11 -25 -76 -22 -87 1 -5 -2 -8 -6 -8 -4 0 -8
-8 -9 -17 -2 -27 -11 -88 -13 -88 -4 0 -11 -42 -12 -72 -1 -18 -6 -33 -11 -33
-4 0 -6 -13 -3 -30 2 -16 0 -30 -5 -30 -5 0 -9 -5 -9 -11 0 -5 6 -7 12 -3 10
6 10 4 2 -7 -6 -8 -11 -26 -10 -41 1 -16 -1 -28 -4 -28 -17 0 -13 -521 4 -549
3 -5 7 -29 7 -55 1 -25 5 -46 8 -46 4 0 6 -12 5 -27 -1 -16 1 -32 5 -38 3 -5
6 -12 6 -15 1 -3 4 -25 8 -50 4 -25 8 -49 8 -55 0 -5 6 -16 12 -24 10 -12 9
-13 -3 -6 -11 6 -10 3 3 -12 9 -11 14 -23 11 -26 -4 -4 -2 -13 4 -20 7 -8 9
-17 5 -20 -3 -4 0 -13 7 -22 7 -8 9 -15 5 -15 -4 0 -2 -7 5 -15 7 -8 10 -15 6
-15 -3 0 3 -22 14 -50 11 -27 17 -50 14 -50 -3 0 2 -7 10 -16 9 -8 14 -19 11
-24 -3 -5 -1 -11 5 -15 6 -4 8 -11 5 -16 -4 -5 -2 -9 4 -9 6 0 8 -7 5 -15 -4
-8 -1 -15 5 -15 6 0 11 -4 11 -10 0 -10 55 -136 70 -160 5 -8 19 -34 31 -57
13 -24 27 -43 31 -43 5 0 7 -4 3 -9 -3 -5 2 -16 10 -24 8 -9 15 -19 15 -23 0
-4 11 -22 26 -41 14 -18 21 -33 17 -33 -4 0 -3 -4 3 -8 6 -4 25 -28 43 -54 17
-27 37 -48 42 -48 6 0 7 -5 4 -10 -3 -6 -2 -10 4 -10 5 0 12 -8 15 -17 4 -10
24 -37 46 -61 22 -24 40 -45 40 -48 0 -3 13 -19 30 -34 16 -15 30 -34 30 -41
0 -7 2 -10 5 -7 3 3 41 -30 84 -73 43 -43 81 -75 85 -72 3 4 6 1 6 -6 0 -16
26 -42 34 -34 3 3 8 -2 12 -11 3 -9 10 -16 15 -16 6 0 22 -12 37 -27 15 -16
40 -34 55 -42 15 -8 27 -18 27 -23 0 -4 4 -8 10 -8 9 0 36 -19 66 -48 8 -7 14
-11 14 -7 0 3 15 -5 33 -18 39 -30 116 -76 140 -84 9 -3 17 -10 17 -15 0 -5 4
-7 9 -3 5 3 17 -3 27 -12 10 -10 19 -17 21 -16 1 2 31 -10 65 -26 54 -24 101
-44 193 -81 62 -25 105 -39 105 -35 0 3 10 -1 23 -9 12 -7 32 -13 45 -11 12 1
22 -3 22 -8 0 -5 7 -7 15 -3 8 3 15 2 15 -3 0 -4 6 -8 13 -9 6 0 23 -3 37 -7
39 -10 73 -16 93 -18 9 -1 17 -4 17 -8 0 -3 14 -5 30 -4 17 1 30 -2 30 -6 0
-4 12 -7 28 -5 15 1 41 -1 57 -6 104 -27 530 -26 682 1 26 5 55 9 63 9 25 1
72 12 92 23 13 7 18 6 18 -2 0 -8 4 -8 13 -2 12 11 82 28 105 26 6 0 12 2 12
6 0 4 6 8 13 9 28 2 218 62 227 72 3 3 10 6 15 7 6 1 31 11 58 22 26 11 48 19
50 18 1 -1 18 8 38 21 20 12 43 22 52 22 8 0 17 4 19 9 1 5 10 11 18 13 8 2
17 6 20 9 3 3 30 19 60 36 77 42 133 76 147 88 37 31 43 35 51 35 5 0 17 9 27
20 10 11 24 20 32 20 7 0 13 5 13 10 0 6 7 10 16 10 9 0 12 5 8 13 -6 9 -4 9
7 1 8 -6 28 -9 44 -7 17 3 47 5 67 6 21 1 38 6 38 10 0 5 8 7 18 6 9 -1 19 0
22 1 3 1 14 4 25 6 11 3 25 6 30 7 6 2 24 10 41 18 17 9 38 15 47 13 9 -1 17
2 17 6 0 5 8 11 18 14 31 10 122 73 115 79 -3 4 0 7 8 7 8 1 25 15 39 32 14
17 33 39 42 50 10 10 15 18 10 18 -4 0 -2 4 4 8 11 7 46 77 51 102 2 8 6 26 9
40 9 40 12 234 3 245 -10 14 -5 105 7 113 15 10 78 145 75 161 -1 7 2 10 8 6
10 -6 15 10 14 42 -1 7 3 10 8 7 5 -3 9 -1 9 5 0 5 5 22 12 38 6 15 11 31 10
35 -1 5 3 8 9 8 5 0 8 4 5 9 -3 4 4 27 15 51 11 23 18 44 16 47 -3 2 1 16 8
30 8 15 12 30 9 35 -3 4 0 8 6 8 6 0 8 5 5 10 -3 6 -3 16 2 23 4 6 9 21 11 32
2 11 5 25 6 32 1 7 5 16 9 19 4 4 7 22 7 39 0 17 3 35 7 38 3 4 8 22 10 39 7
53 11 83 14 83 1 0 3 16 4 35 2 19 4 35 5 35 1 0 3 10 4 22 2 13 5 26 9 29 3
3 2 17 -3 30 -5 13 -6 25 -1 28 4 3 7 20 6 38 0 18 4 36 10 40 6 5 6 8 -2 8
-9 0 -10 7 -3 25 7 17 6 25 -1 25 -8 0 -8 4 -2 12 7 10 10 173 3 173 -1 0 -2
25 -3 55 0 30 -5 58 -11 62 -7 5 -7 8 2 8 8 0 10 5 5 13 -4 6 -8 30 -9 52 -1
22 -3 40 -4 40 -1 0 -3 11 -5 25 -1 14 -6 45 -10 70 -4 25 -9 54 -10 65 -2 11
-7 31 -12 45 -5 14 -9 34 -9 45 1 11 -2 23 -6 26 -5 3 -9 17 -10 32 -1 15 -6
27 -10 27 -4 0 -7 8 -7 18 0 20 -23 105 -31 112 -3 3 -6 12 -8 20 -1 8 -7 24
-11 35 -5 11 -20 47 -32 80 -13 33 -40 94 -61 135 -21 41 -38 81 -38 88 0 6
-4 12 -10 12 -5 0 -12 11 -16 25 -3 14 -10 25 -16 25 -5 0 -6 5 -3 10 3 6 2
10 -3 10 -5 0 -12 8 -15 18 -3 9 -14 30 -24 47 -17 28 -24 38 -50 69 -6 7 -9
16 -6 20 3 3 -2 8 -11 12 -9 3 -16 13 -16 20 0 8 -7 17 -15 20 -8 4 -15 11
-15 18 0 6 -14 27 -30 46 -48 57 -50 59 -50 64 0 2 -22 27 -50 56 -27 29 -50
54 -50 56 0 3 -29 33 -65 69 -36 35 -65 62 -65 61 0 -2 -29 24 -63 58 -35 33
-70 62 -77 64 -7 2 -25 16 -39 32 -14 16 -38 43 -53 59 -15 17 -30 31 -32 31
-3 0 -20 14 -38 30 -18 17 -38 30 -45 30 -7 0 -13 5 -13 10 0 6 -8 10 -18 10
-10 0 -22 3 -26 7 -9 9 -78 33 -96 33 -9 0 -22 6 -28 13 -7 6 -16 12 -20 13
-4 0 -31 12 -61 27 -30 15 -60 27 -66 27 -6 0 -16 5 -23 12 -6 6 -18 13 -26
14 -7 1 -29 9 -47 17 -19 8 -51 21 -71 28 -21 7 -38 17 -38 22 0 4 -4 6 -9 3
-5 -4 -22 -1 -38 5 -32 14 -48 18 -80 21 -13 1 -23 6 -23 11 0 5 -7 7 -15 4
-8 -4 -17 -1 -21 4 -3 6 -15 9 -25 6 -10 -3 -19 -1 -21 3 -3 7 -22 12 -113 25
-16 3 -37 8 -45 11 -8 4 -37 8 -65 10 -65 5 -83 9 -91 16 -3 4 -17 3 -30 -2
-13 -5 -24 -6 -24 -2 0 4 -24 9 -52 10 -137 5 -143 6 -153 30 -5 12 -15 22
-22 22 -7 0 -13 5 -13 10 0 6 -57 10 -150 10 l-150 0 -22 -42z m367 -1733 c17
0 34 -2 40 -4 5 -3 16 -6 25 -6 33 -3 86 -18 97 -27 7 -5 17 -7 22 -4 5 4 12
2 16 -4 4 -6 11 -8 16 -5 5 4 9 2 9 -3 0 -5 27 -20 60 -33 37 -14 55 -26 47
-31 -8 -5 -6 -8 6 -8 9 0 26 -9 37 -20 11 -11 23 -20 26 -19 16 3 133 -121
158 -167 8 -16 15 -24 16 -19 2 27 89 -174 92 -212 1 -7 4 -13 8 -13 3 0 7
-17 8 -37 2 -20 7 -42 12 -48 5 -6 5 -17 0 -25 -5 -8 -6 -19 -2 -25 8 -12 11
-145 3 -145 -4 0 -6 -19 -6 -43 0 -23 -4 -51 -10 -62 -5 -11 -8 -23 -7 -27 1
-4 -5 -22 -12 -40 -8 -18 -15 -37 -16 -43 -6 -29 -85 -163 -105 -177 -5 -4 -7
-8 -3 -8 4 0 -13 -20 -38 -45 -24 -25 -44 -50 -44 -56 0 -5 -4 -8 -8 -5 -4 2
-26 -12 -48 -32 -23 -20 -47 -38 -55 -40 -8 -2 -16 -7 -19 -11 -3 -4 -20 -13
-37 -20 -18 -8 -33 -18 -33 -23 0 -6 -9 -8 -20 -5 -11 3 -18 2 -15 -2 2 -5
-21 -15 -53 -25 -52 -15 -70 -19 -142 -32 -48 -9 -258 -2 -276 8 -5 3 -29 11
-54 18 -52 14 -173 69 -178 82 -2 4 -9 8 -16 8 -7 0 -21 9 -31 20 -10 11 -22
20 -27 20 -9 0 -105 96 -143 143 -47 58 -126 214 -129 254 0 13 -4 23 -7 23
-3 0 -6 6 -7 13 0 6 -4 28 -7 47 -12 62 -12 240 0 240 5 0 3 5 -5 10 -12 7
-12 10 -1 10 7 0 11 6 8 14 -3 8 -3 17 1 20 3 4 7 14 8 24 4 31 12 60 23 80 6
11 7 22 4 26 -3 3 0 6 7 6 7 0 11 3 8 6 -7 6 53 123 77 151 8 10 16 23 17 28
1 6 12 18 25 28 13 10 20 24 16 30 -3 7 -3 9 1 5 5 -4 27 11 50 33 22 23 53
47 69 55 15 8 27 19 27 24 0 6 7 10 15 10 8 0 15 5 15 11 0 5 4 8 9 4 5 -3 15
1 23 8 11 11 70 39 88 43 3 0 18 6 33 12 16 7 37 12 48 12 10 0 19 4 19 9 0 4
11 6 25 3 14 -2 25 0 25 4 0 5 36 9 81 9 44 0 83 4 86 9 3 4 8 4 12 0 3 -5 20
-9 36 -9z"/>
</g>
</svg>
